  0
SECTION
  2
HEADER
  9
$MEASUREMENT
  70
  1
  9
$INSUNITS
  70
  4
  0
ENDSEC
  0
SECTION
  2
TABLES
  0
TABLE
  2
LTYPE
 70
     1
  0
LTYPE
  2
CONTINUOUS
 70
    64
  3
Ausgezogene Linie
 72
    65
 73
     0
 40
0.0
  0
ENDTAB
  0
TABLE
  2
LAYER
 70
     3
  0
LAYER
  2
Kontur
 70
    64
 62
     7
  6
CONTINUOUS
  0
LAYER
  2
Gravur
 70
    64
 62
     7
  6
CONTINUOUS
  0
LAYER
  2
Bezugspunkte
 70
    64
 62
     1
  6
CONTINUOUS
  0
ENDTAB
  0
TABLE
  2
STYLE
 70
     1
  0
STYLE
  2
TXT
 70
    64
 40
0.0
 41
1.0
 50
0.0
 71
     0
 42
3.500000
  3
TXT
  0
ENDTAB
  0
ENDSEC
  0
SECTION
  2
BLOCKS
  0
ENDSEC
  0
SECTION
  2
ENTITIES
  0
ARC
  8
Kontur
 62
   7
 39
0.100
  6
CONTINUOUS
 10
151.00000
 20
174.00000
 30
 0
 40
1.00000
 50
0.00000
 51
90.00000
  0
LINE
  8
Kontur
 62
   7
 39
0.100
  6
CONTINUOUS
 10
152.00000
 20
174.00000
 30
 0
 11
152.00000
 21
1.00000
  0
ARC
  8
Kontur
 62
   7
 39
0.100
  6
CONTINUOUS
 10
151.00000
 20
1.00000
 30
 0
 40
1.00000
 50
-90.00000
 51
0.00000
  0
LINE
  8
Kontur
 62
   7
 39
0.100
  6
CONTINUOUS
 10
151.00000
 20
0.00000
 30
 0
 11
1.00000
 21
0.00000
  0
ARC
  8
Kontur
 62
   7
 39
0.100
  6
CONTINUOUS
 10
1.00000
 20
1.00000
 30
 0
 40
1.00000
 50
180.00000
 51
270.00000
  0
LINE
  8
Kontur
 62
   7
 39
0.100
  6
CONTINUOUS
 10
0.00000
 20
1.00000
 30
 0
 11
0.00000
 21
174.00000
  0
ARC
  8
Kontur
 62
   7
 39
0.100
  6
CONTINUOUS
 10
1.00000
 20
174.00000
 30
 0
 40
1.00000
 50
90.00000
 51
180.00000
  0
LINE
  8
Kontur
 62
   7
 39
0.100
  6
CONTINUOUS
 10
1.00000
 20
175.00000
 30
 0
 11
151.00000
 21
175.00000
  0
ARC
  8
Kontur
 62
   7
 39
0.100
  6
CONTINUOUS
 10
139.75000
 20
172.00400
 30
 0
 40
2.09967
 50
146.95325
 51
213.04675
  0
ARC
  8
Kontur
 62
   7
 39
0.100
  6
CONTINUOUS
 10
138.82844
 20
171.40400
 30
 0
 40
1.00000
 50
213.02466
 51
269.97501
  0
LINE
  8
Kontur
 62
   7
 39
0.100
  6
CONTINUOUS
 10
138.82800
 20
170.40400
 30
 0
 11
140.67200
 21
170.40400
  0
ARC
  8
Kontur
 62
   7
 39
0.100
  6
CONTINUOUS
 10
140.67156
 20
171.40400
 30
 0
 40
1.00000
 50
270.02499
 51
326.97534
  0
ARC
  8
Kontur
 62
   7
 39
0.100
  6
CONTINUOUS
 10
139.75000
 20
172.00400
 30
 0
 40
2.09967
 50
326.95325
 51
393.04675
  0
ARC
  8
Kontur
 62
   7
 39
0.100
  6
CONTINUOUS
 10
140.67156
 20
172.60400
 30
 0
 40
1.00000
 50
33.02466
 51
89.97501
  0
LINE
  8
Kontur
 62
   7
 39
0.100
  6
CONTINUOUS
 10
140.67200
 20
173.60400
 30
 0
 11
138.82800
 21
173.60400
  0
ARC
  8
Kontur
 62
   7
 39
0.100
  6
CONTINUOUS
 10
138.82844
 20
172.60400
 30
 0
 40
1.00000
 50
90.02499
 51
146.97534
  0
ARC
  8
Kontur
 62
   7
 39
0.100
  6
CONTINUOUS
 10
12.55000
 20
172.00400
 30
 0
 40
2.09967
 50
146.95325
 51
213.04675
  0
ARC
  8
Kontur
 62
   7
 39
0.100
  6
CONTINUOUS
 10
11.62844
 20
171.40400
 30
 0
 40
1.00000
 50
213.02466
 51
269.97501
  0
LINE
  8
Kontur
 62
   7
 39
0.100
  6
CONTINUOUS
 10
11.62800
 20
170.40400
 30
 0
 11
13.47200
 21
170.40400
  0
ARC
  8
Kontur
 62
   7
 39
0.100
  6
CONTINUOUS
 10
13.47156
 20
171.40400
 30
 0
 40
1.00000
 50
270.02499
 51
326.97534
  0
ARC
  8
Kontur
 62
   7
 39
0.100
  6
CONTINUOUS
 10
12.55000
 20
172.00400
 30
 0
 40
2.09967
 50
326.95325
 51
393.04675
  0
ARC
  8
Kontur
 62
   7
 39
0.100
  6
CONTINUOUS
 10
13.47156
 20
172.60400
 30
 0
 40
1.00000
 50
33.02466
 51
89.97501
  0
LINE
  8
Kontur
 62
   7
 39
0.100
  6
CONTINUOUS
 10
13.47200
 20
173.60400
 30
 0
 11
11.62800
 21
173.60400
  0
ARC
  8
Kontur
 62
   7
 39
0.100
  6
CONTINUOUS
 10
11.62844
 20
172.60400
 30
 0
 40
1.00000
 50
90.02499
 51
146.97534
  0
ARC
  8
Kontur
 62
   7
 39
0.100
  6
CONTINUOUS
 10
12.55000
 20
3.00400
 30
 0
 40
2.09967
 50
146.95325
 51
213.04675
  0
ARC
  8
Kontur
 62
   7
 39
0.100
  6
CONTINUOUS
 10
11.62844
 20
2.40400
 30
 0
 40
1.00000
 50
213.02466
 51
269.97501
  0
LINE
  8
Kontur
 62
   7
 39
0.100
  6
CONTINUOUS
 10
11.62800
 20
1.40400
 30
 0
 11
13.47200
 21
1.40400
  0
ARC
  8
Kontur
 62
   7
 39
0.100
  6
CONTINUOUS
 10
13.47156
 20
2.40400
 30
 0
 40
1.00000
 50
270.02499
 51
326.97534
  0
ARC
  8
Kontur
 62
   7
 39
0.100
  6
CONTINUOUS
 10
12.55000
 20
3.00400
 30
 0
 40
2.09967
 50
326.95325
 51
393.04675
  0
ARC
  8
Kontur
 62
   7
 39
0.100
  6
CONTINUOUS
 10
13.47156
 20
3.60400
 30
 0
 40
1.00000
 50
33.02466
 51
89.97501
  0
LINE
  8
Kontur
 62
   7
 39
0.100
  6
CONTINUOUS
 10
13.47200
 20
4.60400
 30
 0
 11
11.62800
 21
4.60400
  0
ARC
  8
Kontur
 62
   7
 39
0.100
  6
CONTINUOUS
 10
11.62844
 20
3.60400
 30
 0
 40
1.00000
 50
90.02499
 51
146.97534
  0
ARC
  8
Kontur
 62
   7
 39
0.100
  6
CONTINUOUS
 10
139.75000
 20
3.00400
 30
 0
 40
2.09967
 50
146.95325
 51
213.04675
  0
ARC
  8
Kontur
 62
   7
 39
0.100
  6
CONTINUOUS
 10
138.82844
 20
2.40400
 30
 0
 40
1.00000
 50
213.02466
 51
269.97501
  0
LINE
  8
Kontur
 62
   7
 39
0.100
  6
CONTINUOUS
 10
138.82800
 20
1.40400
 30
 0
 11
140.67200
 21
1.40400
  0
ARC
  8
Kontur
 62
   7
 39
0.100
  6
CONTINUOUS
 10
140.67156
 20
2.40400
 30
 0
 40
1.00000
 50
270.02499
 51
326.97534
  0
ARC
  8
Kontur
 62
   7
 39
0.100
  6
CONTINUOUS
 10
139.75000
 20
3.00400
 30
 0
 40
2.09967
 50
326.95325
 51
393.04675
  0
ARC
  8
Kontur
 62
   7
 39
0.100
  6
CONTINUOUS
 10
140.67156
 20
3.60400
 30
 0
 40
1.00000
 50
33.02466
 51
89.97501
  0
LINE
  8
Kontur
 62
   7
 39
0.100
  6
CONTINUOUS
 10
140.67200
 20
4.60400
 30
 0
 11
138.82800
 21
4.60400
  0
ARC
  8
Kontur
 62
   7
 39
0.100
  6
CONTINUOUS
 10
138.82844
 20
3.60400
 30
 0
 40
1.00000
 50
90.02499
 51
146.97534
  0
CIRCLE
  8
Kontur
 62
   7
 39
0.100
  6
CONTINUOUS
 10
136.09000
 20
19.68600
 30
 0
 40
4.00000
  0
CIRCLE
  8
Kontur
 62
   7
 39
0.100
  6
CONTINUOUS
 10
12.22000
 20
19.54600
 30
 0
 40
2.50000
  0
CIRCLE
  8
Kontur
 62
   7
 39
0.100
  6
CONTINUOUS
 10
37.62000
 20
19.54600
 30
 0
 40
2.50000
  0
CIRCLE
  8
Kontur
 62
   7
 39
0.100
  6
CONTINUOUS
 10
37.62000
 20
38.66100
 30
 0
 40
2.50000
  0
CIRCLE
  8
Kontur
 62
   7
 39
0.100
  6
CONTINUOUS
 10
12.22000
 20
38.66100
 30
 0
 40
2.50000
  0
CIRCLE
  8
Kontur
 62
   7
 39
0.100
  6
CONTINUOUS
 10
37.62000
 20
57.71100
 30
 0
 40
2.50000
  0
CIRCLE
  8
Kontur
 62
   7
 39
0.100
  6
CONTINUOUS
 10
12.22000
 20
57.71100
 30
 0
 40
2.50000
  0
CIRCLE
  8
Kontur
 62
   7
 39
0.100
  6
CONTINUOUS
 10
37.62000
 20
76.76100
 30
 0
 40
2.50000
  0
CIRCLE
  8
Kontur
 62
   7
 39
0.100
  6
CONTINUOUS
 10
12.22000
 20
76.76100
 30
 0
 40
2.50000
  0
CIRCLE
  8
Kontur
 62
   7
 39
0.100
  6
CONTINUOUS
 10
37.62000
 20
95.72000
 30
 0
 40
2.50000
  0
CIRCLE
  8
Kontur
 62
   7
 39
0.100
  6
CONTINUOUS
 10
12.22000
 20
95.72000
 30
 0
 40
2.50000
  0
CIRCLE
  8
Kontur
 62
   7
 39
0.100
  6
CONTINUOUS
 10
37.62000
 20
114.83800
 30
 0
 40
4.00000
  0
CIRCLE
  8
Kontur
 62
   7
 39
0.100
  6
CONTINUOUS
 10
12.22000
 20
114.83800
 30
 0
 40
4.00000
  0
CIRCLE
  8
Kontur
 62
   7
 39
0.100
  6
CONTINUOUS
 10
12.22000
 20
152.93600
 30
 0
 40
4.00000
  0
CIRCLE
  8
Kontur
 62
   7
 39
0.100
  6
CONTINUOUS
 10
63.07800
 20
19.54600
 30
 0
 40
2.50000
  0
CIRCLE
  8
Kontur
 62
   7
 39
0.100
  6
CONTINUOUS
 10
63.07800
 20
38.66100
 30
 0
 40
2.50000
  0
CIRCLE
  8
Kontur
 62
   7
 39
0.100
  6
CONTINUOUS
 10
63.07800
 20
57.71100
 30
 0
 40
2.50000
  0
CIRCLE
  8
Kontur
 62
   7
 39
0.100
  6
CONTINUOUS
 10
63.07800
 20
76.76100
 30
 0
 40
2.50000
  0
CIRCLE
  8
Kontur
 62
   7
 39
0.100
  6
CONTINUOUS
 10
63.07800
 20
95.72000
 30
 0
 40
2.50000
  0
CIRCLE
  8
Kontur
 62
   7
 39
0.100
  6
CONTINUOUS
 10
63.07800
 20
114.83800
 30
 0
 40
4.00000
  0
CIRCLE
  8
Kontur
 62
   7
 39
0.100
  6
CONTINUOUS
 10
63.02000
 20
152.93600
 30
 0
 40
4.00000
  0
CIRCLE
  8
Kontur
 62
   7
 39
0.100
  6
CONTINUOUS
 10
88.47800
 20
19.54600
 30
 0
 40
2.50000
  0
CIRCLE
  8
Kontur
 62
   7
 39
0.100
  6
CONTINUOUS
 10
88.47800
 20
38.66100
 30
 0
 40
2.50000
  0
CIRCLE
  8
Kontur
 62
   7
 39
0.100
  6
CONTINUOUS
 10
88.47800
 20
57.71100
 30
 0
 40
2.50000
  0
CIRCLE
  8
Kontur
 62
   7
 39
0.100
  6
CONTINUOUS
 10
88.47800
 20
76.76100
 30
 0
 40
2.50000
  0
CIRCLE
  8
Kontur
 62
   7
 39
0.100
  6
CONTINUOUS
 10
88.47800
 20
95.72000
 30
 0
 40
2.50000
  0
CIRCLE
  8
Kontur
 62
   7
 39
0.100
  6
CONTINUOUS
 10
88.47800
 20
114.83800
 30
 0
 40
4.00000
  0
CIRCLE
  8
Kontur
 62
   7
 39
0.100
  6
CONTINUOUS
 10
88.42000
 20
152.93600
 30
 0
 40
4.00000
  0
CIRCLE
  8
Kontur
 62
   7
 39
0.100
  6
CONTINUOUS
 10
111.05400
 20
38.59300
 30
 0
 40
4.00000
  0
CIRCLE
  8
Kontur
 62
   7
 39
0.100
  6
CONTINUOUS
 10
111.05400
 20
57.68800
 30
 0
 40
4.00000
  0
CIRCLE
  8
Kontur
 62
   7
 39
0.100
  6
CONTINUOUS
 10
111.05400
 20
76.75700
 30
 0
 40
4.00000
  0
CIRCLE
  8
Kontur
 62
   7
 39
0.100
  6
CONTINUOUS
 10
111.05400
 20
95.81000
 30
 0
 40
4.00000
  0
CIRCLE
  8
Kontur
 62
   7
 39
0.100
  6
CONTINUOUS
 10
125.58500
 20
114.88200
 30
 0
 40
2.50000
  0
CIRCLE
  8
Kontur
 62
   7
 39
0.100
  6
CONTINUOUS
 10
121.34900
 20
19.68600
 30
 0
 40
2.17500
  0
CIRCLE
  8
Kontur
 62
   7
 39
0.100
  6
CONTINUOUS
 10
121.34900
 20
38.59300
 30
 0
 40
2.17500
  0
CIRCLE
  8
Kontur
 62
   7
 39
0.100
  6
CONTINUOUS
 10
121.34900
 20
57.68800
 30
 0
 40
2.17500
  0
CIRCLE
  8
Kontur
 62
   7
 39
0.100
  6
CONTINUOUS
 10
121.34900
 20
76.75700
 30
 0
 40
2.17500
  0
CIRCLE
  8
Kontur
 62
   7
 39
0.100
  6
CONTINUOUS
 10
121.34900
 20
95.81000
 30
 0
 40
2.17500
  0
CIRCLE
  8
Kontur
 62
   7
 39
0.100
  6
CONTINUOUS
 10
136.08600
 20
38.59300
 30
 0
 40
4.00000
  0
CIRCLE
  8
Kontur
 62
   7
 39
0.100
  6
CONTINUOUS
 10
136.08600
 20
57.68800
 30
 0
 40
4.00000
  0
CIRCLE
  8
Kontur
 62
   7
 39
0.100
  6
CONTINUOUS
 10
136.08600
 20
76.75700
 30
 0
 40
4.00000
  0
CIRCLE
  8
Kontur
 62
   7
 39
0.100
  6
CONTINUOUS
 10
136.08600
 20
95.81000
 30
 0
 40
4.00000
  0
CIRCLE
  8
Kontur
 62
   7
 39
0.100
  6
CONTINUOUS
 10
146.04400
 20
19.68600
 30
 0
 40
2.17500
  0
CIRCLE
  8
Kontur
 62
   7
 39
0.100
  6
CONTINUOUS
 10
146.04400
 20
38.59300
 30
 0
 40
2.17500
  0
CIRCLE
  8
Kontur
 62
   7
 39
0.100
  6
CONTINUOUS
 10
146.04400
 20
57.68800
 30
 0
 40
2.17500
  0
CIRCLE
  8
Kontur
 62
   7
 39
0.100
  6
CONTINUOUS
 10
146.04400
 20
76.75700
 30
 0
 40
2.17500
  0
CIRCLE
  8
Kontur
 62
   7
 39
0.100
  6
CONTINUOUS
 10
146.04400
 20
95.81000
 30
 0
 40
2.17500
  0
CIRCLE
  8
Kontur
 62
   7
 39
0.100
  6
CONTINUOUS
 10
125.58400
 20
141.50400
 30
 0
 40
5.00000
  0
CIRCLE
  8
Kontur
 62
   7
 39
0.100
  6
CONTINUOUS
 10
50.32000
 20
134.45600
 30
 0
 40
6.00000
  0
CIRCLE
  8
Kontur
 62
   7
 39
0.100
  6
CONTINUOUS
 10
37.62000
 20
152.93600
 30
 0
 40
4.00000
  0
CIRCLE
  8
Kontur
 62
   7
 39
0.100
  6
CONTINUOUS
 10
111.05000
 20
19.68600
 30
 0
 40
4.00000
  0
LINE
  8
Bezugspunkte
 62
   1
 39
0.100
  6
CONTINUOUS
 10
-1.25000
 20
0.00000
 30
 0
 11
1.25000
 21
0.00000
  0
LINE
  8
Bezugspunkte
 62
   1
 39
0.100
  6
CONTINUOUS
 10
0.00000
 20
-1.25000
 30
 0
 11
0.00000
 21
1.25000
  0
LINE
  8
Bezugspunkte
 62
   1
 39
0.100
  6
CONTINUOUS
 10
138.50000
 20
172.00400
 30
 0
 11
141.00000
 21
172.00400
  0
LINE
  8
Bezugspunkte
 62
   1
 39
0.100
  6
CONTINUOUS
 10
139.75000
 20
170.75400
 30
 0
 11
139.75000
 21
173.25400
  0
LINE
  8
Bezugspunkte
 62
   1
 39
0.100
  6
CONTINUOUS
 10
11.30000
 20
172.00400
 30
 0
 11
13.80000
 21
172.00400
  0
LINE
  8
Bezugspunkte
 62
   1
 39
0.100
  6
CONTINUOUS
 10
12.55000
 20
170.75400
 30
 0
 11
12.55000
 21
173.25400
  0
LINE
  8
Bezugspunkte
 62
   1
 39
0.100
  6
CONTINUOUS
 10
11.30000
 20
3.00400
 30
 0
 11
13.80000
 21
3.00400
  0
LINE
  8
Bezugspunkte
 62
   1
 39
0.100
  6
CONTINUOUS
 10
12.55000
 20
1.75400
 30
 0
 11
12.55000
 21
4.25400
  0
LINE
  8
Bezugspunkte
 62
   1
 39
0.100
  6
CONTINUOUS
 10
138.50000
 20
3.00400
 30
 0
 11
141.00000
 21
3.00400
  0
LINE
  8
Bezugspunkte
 62
   1
 39
0.100
  6
CONTINUOUS
 10
139.75000
 20
1.75400
 30
 0
 11
139.75000
 21
4.25400
  0
LINE
  8
Bezugspunkte
 62
   1
 39
0.100
  6
CONTINUOUS
 10
134.84000
 20
19.68600
 30
 0
 11
137.34000
 21
19.68600
  0
LINE
  8
Bezugspunkte
 62
   1
 39
0.100
  6
CONTINUOUS
 10
136.09000
 20
18.43600
 30
 0
 11
136.09000
 21
20.93600
  0
LINE
  8
Bezugspunkte
 62
   1
 39
0.100
  6
CONTINUOUS
 10
10.97000
 20
19.54600
 30
 0
 11
13.47000
 21
19.54600
  0
LINE
  8
Bezugspunkte
 62
   1
 39
0.100
  6
CONTINUOUS
 10
12.22000
 20
18.29600
 30
 0
 11
12.22000
 21
20.79600
  0
LINE
  8
Bezugspunkte
 62
   1
 39
0.100
  6
CONTINUOUS
 10
36.37000
 20
19.54600
 30
 0
 11
38.87000
 21
19.54600
  0
LINE
  8
Bezugspunkte
 62
   1
 39
0.100
  6
CONTINUOUS
 10
37.62000
 20
18.29600
 30
 0
 11
37.62000
 21
20.79600
  0
LINE
  8
Bezugspunkte
 62
   1
 39
0.100
  6
CONTINUOUS
 10
36.37000
 20
38.66100
 30
 0
 11
38.87000
 21
38.66100
  0
LINE
  8
Bezugspunkte
 62
   1
 39
0.100
  6
CONTINUOUS
 10
37.62000
 20
37.41100
 30
 0
 11
37.62000
 21
39.91100
  0
LINE
  8
Bezugspunkte
 62
   1
 39
0.100
  6
CONTINUOUS
 10
10.97000
 20
38.66100
 30
 0
 11
13.47000
 21
38.66100
  0
LINE
  8
Bezugspunkte
 62
   1
 39
0.100
  6
CONTINUOUS
 10
12.22000
 20
37.41100
 30
 0
 11
12.22000
 21
39.91100
  0
LINE
  8
Bezugspunkte
 62
   1
 39
0.100
  6
CONTINUOUS
 10
36.37000
 20
57.71100
 30
 0
 11
38.87000
 21
57.71100
  0
LINE
  8
Bezugspunkte
 62
   1
 39
0.100
  6
CONTINUOUS
 10
37.62000
 20
56.46100
 30
 0
 11
37.62000
 21
58.96100
  0
LINE
  8
Bezugspunkte
 62
   1
 39
0.100
  6
CONTINUOUS
 10
10.97000
 20
57.71100
 30
 0
 11
13.47000
 21
57.71100
  0
LINE
  8
Bezugspunkte
 62
   1
 39
0.100
  6
CONTINUOUS
 10
12.22000
 20
56.46100
 30
 0
 11
12.22000
 21
58.96100
  0
LINE
  8
Bezugspunkte
 62
   1
 39
0.100
  6
CONTINUOUS
 10
36.37000
 20
76.76100
 30
 0
 11
38.87000
 21
76.76100
  0
LINE
  8
Bezugspunkte
 62
   1
 39
0.100
  6
CONTINUOUS
 10
37.62000
 20
75.51100
 30
 0
 11
37.62000
 21
78.01100
  0
LINE
  8
Bezugspunkte
 62
   1
 39
0.100
  6
CONTINUOUS
 10
10.97000
 20
76.76100
 30
 0
 11
13.47000
 21
76.76100
  0
LINE
  8
Bezugspunkte
 62
   1
 39
0.100
  6
CONTINUOUS
 10
12.22000
 20
75.51100
 30
 0
 11
12.22000
 21
78.01100
  0
LINE
  8
Bezugspunkte
 62
   1
 39
0.100
  6
CONTINUOUS
 10
36.37000
 20
95.72000
 30
 0
 11
38.87000
 21
95.72000
  0
LINE
  8
Bezugspunkte
 62
   1
 39
0.100
  6
CONTINUOUS
 10
37.62000
 20
94.47000
 30
 0
 11
37.62000
 21
96.97000
  0
LINE
  8
Bezugspunkte
 62
   1
 39
0.100
  6
CONTINUOUS
 10
10.97000
 20
95.72000
 30
 0
 11
13.47000
 21
95.72000
  0
LINE
  8
Bezugspunkte
 62
   1
 39
0.100
  6
CONTINUOUS
 10
12.22000
 20
94.47000
 30
 0
 11
12.22000
 21
96.97000
  0
LINE
  8
Bezugspunkte
 62
   1
 39
0.100
  6
CONTINUOUS
 10
36.37000
 20
114.83800
 30
 0
 11
38.87000
 21
114.83800
  0
LINE
  8
Bezugspunkte
 62
   1
 39
0.100
  6
CONTINUOUS
 10
37.62000
 20
113.58800
 30
 0
 11
37.62000
 21
116.08800
  0
LINE
  8
Bezugspunkte
 62
   1
 39
0.100
  6
CONTINUOUS
 10
10.97000
 20
114.83800
 30
 0
 11
13.47000
 21
114.83800
  0
LINE
  8
Bezugspunkte
 62
   1
 39
0.100
  6
CONTINUOUS
 10
12.22000
 20
113.58800
 30
 0
 11
12.22000
 21
116.08800
  0
LINE
  8
Bezugspunkte
 62
   1
 39
0.100
  6
CONTINUOUS
 10
10.97000
 20
152.93600
 30
 0
 11
13.47000
 21
152.93600
  0
LINE
  8
Bezugspunkte
 62
   1
 39
0.100
  6
CONTINUOUS
 10
12.22000
 20
151.68600
 30
 0
 11
12.22000
 21
154.18600
  0
LINE
  8
Bezugspunkte
 62
   1
 39
0.100
  6
CONTINUOUS
 10
61.82800
 20
19.54600
 30
 0
 11
64.32800
 21
19.54600
  0
LINE
  8
Bezugspunkte
 62
   1
 39
0.100
  6
CONTINUOUS
 10
63.07800
 20
18.29600
 30
 0
 11
63.07800
 21
20.79600
  0
LINE
  8
Bezugspunkte
 62
   1
 39
0.100
  6
CONTINUOUS
 10
61.82800
 20
38.66100
 30
 0
 11
64.32800
 21
38.66100
  0
LINE
  8
Bezugspunkte
 62
   1
 39
0.100
  6
CONTINUOUS
 10
63.07800
 20
37.41100
 30
 0
 11
63.07800
 21
39.91100
  0
LINE
  8
Bezugspunkte
 62
   1
 39
0.100
  6
CONTINUOUS
 10
61.82800
 20
57.71100
 30
 0
 11
64.32800
 21
57.71100
  0
LINE
  8
Bezugspunkte
 62
   1
 39
0.100
  6
CONTINUOUS
 10
63.07800
 20
56.46100
 30
 0
 11
63.07800
 21
58.96100
  0
LINE
  8
Bezugspunkte
 62
   1
 39
0.100
  6
CONTINUOUS
 10
61.82800
 20
76.76100
 30
 0
 11
64.32800
 21
76.76100
  0
LINE
  8
Bezugspunkte
 62
   1
 39
0.100
  6
CONTINUOUS
 10
63.07800
 20
75.51100
 30
 0
 11
63.07800
 21
78.01100
  0
LINE
  8
Bezugspunkte
 62
   1
 39
0.100
  6
CONTINUOUS
 10
61.82800
 20
95.72000
 30
 0
 11
64.32800
 21
95.72000
  0
LINE
  8
Bezugspunkte
 62
   1
 39
0.100
  6
CONTINUOUS
 10
63.07800
 20
94.47000
 30
 0
 11
63.07800
 21
96.97000
  0
LINE
  8
Bezugspunkte
 62
   1
 39
0.100
  6
CONTINUOUS
 10
61.82800
 20
114.83800
 30
 0
 11
64.32800
 21
114.83800
  0
LINE
  8
Bezugspunkte
 62
   1
 39
0.100
  6
CONTINUOUS
 10
63.07800
 20
113.58800
 30
 0
 11
63.07800
 21
116.08800
  0
LINE
  8
Bezugspunkte
 62
   1
 39
0.100
  6
CONTINUOUS
 10
61.77000
 20
152.93600
 30
 0
 11
64.27000
 21
152.93600
  0
LINE
  8
Bezugspunkte
 62
   1
 39
0.100
  6
CONTINUOUS
 10
63.02000
 20
151.68600
 30
 0
 11
63.02000
 21
154.18600
  0
LINE
  8
Bezugspunkte
 62
   1
 39
0.100
  6
CONTINUOUS
 10
87.22800
 20
19.54600
 30
 0
 11
89.72800
 21
19.54600
  0
LINE
  8
Bezugspunkte
 62
   1
 39
0.100
  6
CONTINUOUS
 10
88.47800
 20
18.29600
 30
 0
 11
88.47800
 21
20.79600
  0
LINE
  8
Bezugspunkte
 62
   1
 39
0.100
  6
CONTINUOUS
 10
87.22800
 20
38.66100
 30
 0
 11
89.72800
 21
38.66100
  0
LINE
  8
Bezugspunkte
 62
   1
 39
0.100
  6
CONTINUOUS
 10
88.47800
 20
37.41100
 30
 0
 11
88.47800
 21
39.91100
  0
LINE
  8
Bezugspunkte
 62
   1
 39
0.100
  6
CONTINUOUS
 10
87.22800
 20
57.71100
 30
 0
 11
89.72800
 21
57.71100
  0
LINE
  8
Bezugspunkte
 62
   1
 39
0.100
  6
CONTINUOUS
 10
88.47800
 20
56.46100
 30
 0
 11
88.47800
 21
58.96100
  0
LINE
  8
Bezugspunkte
 62
   1
 39
0.100
  6
CONTINUOUS
 10
87.22800
 20
76.76100
 30
 0
 11
89.72800
 21
76.76100
  0
LINE
  8
Bezugspunkte
 62
   1
 39
0.100
  6
CONTINUOUS
 10
88.47800
 20
75.51100
 30
 0
 11
88.47800
 21
78.01100
  0
LINE
  8
Bezugspunkte
 62
   1
 39
0.100
  6
CONTINUOUS
 10
87.22800
 20
95.72000
 30
 0
 11
89.72800
 21
95.72000
  0
LINE
  8
Bezugspunkte
 62
   1
 39
0.100
  6
CONTINUOUS
 10
88.47800
 20
94.47000
 30
 0
 11
88.47800
 21
96.97000
  0
LINE
  8
Bezugspunkte
 62
   1
 39
0.100
  6
CONTINUOUS
 10
87.22800
 20
114.83800
 30
 0
 11
89.72800
 21
114.83800
  0
LINE
  8
Bezugspunkte
 62
   1
 39
0.100
  6
CONTINUOUS
 10
88.47800
 20
113.58800
 30
 0
 11
88.47800
 21
116.08800
  0
LINE
  8
Bezugspunkte
 62
   1
 39
0.100
  6
CONTINUOUS
 10
87.17000
 20
152.93600
 30
 0
 11
89.67000
 21
152.93600
  0
LINE
  8
Bezugspunkte
 62
   1
 39
0.100
  6
CONTINUOUS
 10
88.42000
 20
151.68600
 30
 0
 11
88.42000
 21
154.18600
  0
LINE
  8
Bezugspunkte
 62
   1
 39
0.100
  6
CONTINUOUS
 10
109.80400
 20
38.59300
 30
 0
 11
112.30400
 21
38.59300
  0
LINE
  8
Bezugspunkte
 62
   1
 39
0.100
  6
CONTINUOUS
 10
111.05400
 20
37.34300
 30
 0
 11
111.05400
 21
39.84300
  0
LINE
  8
Bezugspunkte
 62
   1
 39
0.100
  6
CONTINUOUS
 10
109.80400
 20
57.68800
 30
 0
 11
112.30400
 21
57.68800
  0
LINE
  8
Bezugspunkte
 62
   1
 39
0.100
  6
CONTINUOUS
 10
111.05400
 20
56.43800
 30
 0
 11
111.05400
 21
58.93800
  0
LINE
  8
Bezugspunkte
 62
   1
 39
0.100
  6
CONTINUOUS
 10
109.80400
 20
76.75700
 30
 0
 11
112.30400
 21
76.75700
  0
LINE
  8
Bezugspunkte
 62
   1
 39
0.100
  6
CONTINUOUS
 10
111.05400
 20
75.50700
 30
 0
 11
111.05400
 21
78.00700
  0
LINE
  8
Bezugspunkte
 62
   1
 39
0.100
  6
CONTINUOUS
 10
109.80400
 20
95.81000
 30
 0
 11
112.30400
 21
95.81000
  0
LINE
  8
Bezugspunkte
 62
   1
 39
0.100
  6
CONTINUOUS
 10
111.05400
 20
94.56000
 30
 0
 11
111.05400
 21
97.06000
  0
LINE
  8
Bezugspunkte
 62
   1
 39
0.100
  6
CONTINUOUS
 10
124.33500
 20
114.88200
 30
 0
 11
126.83500
 21
114.88200
  0
LINE
  8
Bezugspunkte
 62
   1
 39
0.100
  6
CONTINUOUS
 10
125.58500
 20
113.63200
 30
 0
 11
125.58500
 21
116.13200
  0
LINE
  8
Bezugspunkte
 62
   1
 39
0.100
  6
CONTINUOUS
 10
120.09900
 20
19.68600
 30
 0
 11
122.59900
 21
19.68600
  0
LINE
  8
Bezugspunkte
 62
   1
 39
0.100
  6
CONTINUOUS
 10
121.34900
 20
18.43600
 30
 0
 11
121.34900
 21
20.93600
  0
LINE
  8
Bezugspunkte
 62
   1
 39
0.100
  6
CONTINUOUS
 10
120.09900
 20
38.59300
 30
 0
 11
122.59900
 21
38.59300
  0
LINE
  8
Bezugspunkte
 62
   1
 39
0.100
  6
CONTINUOUS
 10
121.34900
 20
37.34300
 30
 0
 11
121.34900
 21
39.84300
  0
LINE
  8
Bezugspunkte
 62
   1
 39
0.100
  6
CONTINUOUS
 10
120.09900
 20
57.68800
 30
 0
 11
122.59900
 21
57.68800
  0
LINE
  8
Bezugspunkte
 62
   1
 39
0.100
  6
CONTINUOUS
 10
121.34900
 20
56.43800
 30
 0
 11
121.34900
 21
58.93800
  0
LINE
  8
Bezugspunkte
 62
   1
 39
0.100
  6
CONTINUOUS
 10
120.09900
 20
76.75700
 30
 0
 11
122.59900
 21
76.75700
  0
LINE
  8
Bezugspunkte
 62
   1
 39
0.100
  6
CONTINUOUS
 10
121.34900
 20
75.50700
 30
 0
 11
121.34900
 21
78.00700
  0
LINE
  8
Bezugspunkte
 62
   1
 39
0.100
  6
CONTINUOUS
 10
120.09900
 20
95.81000
 30
 0
 11
122.59900
 21
95.81000
  0
LINE
  8
Bezugspunkte
 62
   1
 39
0.100
  6
CONTINUOUS
 10
121.34900
 20
94.56000
 30
 0
 11
121.34900
 21
97.06000
  0
LINE
  8
Bezugspunkte
 62
   1
 39
0.100
  6
CONTINUOUS
 10
134.83600
 20
38.59300
 30
 0
 11
137.33600
 21
38.59300
  0
LINE
  8
Bezugspunkte
 62
   1
 39
0.100
  6
CONTINUOUS
 10
136.08600
 20
37.34300
 30
 0
 11
136.08600
 21
39.84300
  0
LINE
  8
Bezugspunkte
 62
   1
 39
0.100
  6
CONTINUOUS
 10
134.83600
 20
57.68800
 30
 0
 11
137.33600
 21
57.68800
  0
LINE
  8
Bezugspunkte
 62
   1
 39
0.100
  6
CONTINUOUS
 10
136.08600
 20
56.43800
 30
 0
 11
136.08600
 21
58.93800
  0
LINE
  8
Bezugspunkte
 62
   1
 39
0.100
  6
CONTINUOUS
 10
134.83600
 20
76.75700
 30
 0
 11
137.33600
 21
76.75700
  0
LINE
  8
Bezugspunkte
 62
   1
 39
0.100
  6
CONTINUOUS
 10
136.08600
 20
75.50700
 30
 0
 11
136.08600
 21
78.00700
  0
LINE
  8
Bezugspunkte
 62
   1
 39
0.100
  6
CONTINUOUS
 10
134.83600
 20
95.81000
 30
 0
 11
137.33600
 21
95.81000
  0
LINE
  8
Bezugspunkte
 62
   1
 39
0.100
  6
CONTINUOUS
 10
136.08600
 20
94.56000
 30
 0
 11
136.08600
 21
97.06000
  0
LINE
  8
Bezugspunkte
 62
   1
 39
0.100
  6
CONTINUOUS
 10
144.79400
 20
19.68600
 30
 0
 11
147.29400
 21
19.68600
  0
LINE
  8
Bezugspunkte
 62
   1
 39
0.100
  6
CONTINUOUS
 10
146.04400
 20
18.43600
 30
 0
 11
146.04400
 21
20.93600
  0
LINE
  8
Bezugspunkte
 62
   1
 39
0.100
  6
CONTINUOUS
 10
144.79400
 20
38.59300
 30
 0
 11
147.29400
 21
38.59300
  0
LINE
  8
Bezugspunkte
 62
   1
 39
0.100
  6
CONTINUOUS
 10
146.04400
 20
37.34300
 30
 0
 11
146.04400
 21
39.84300
  0
LINE
  8
Bezugspunkte
 62
   1
 39
0.100
  6
CONTINUOUS
 10
144.79400
 20
57.68800
 30
 0
 11
147.29400
 21
57.68800
  0
LINE
  8
Bezugspunkte
 62
   1
 39
0.100
  6
CONTINUOUS
 10
146.04400
 20
56.43800
 30
 0
 11
146.04400
 21
58.93800
  0
LINE
  8
Bezugspunkte
 62
   1
 39
0.100
  6
CONTINUOUS
 10
144.79400
 20
76.75700
 30
 0
 11
147.29400
 21
76.75700
  0
LINE
  8
Bezugspunkte
 62
   1
 39
0.100
  6
CONTINUOUS
 10
146.04400
 20
75.50700
 30
 0
 11
146.04400
 21
78.00700
  0
LINE
  8
Bezugspunkte
 62
   1
 39
0.100
  6
CONTINUOUS
 10
144.79400
 20
95.81000
 30
 0
 11
147.29400
 21
95.81000
  0
LINE
  8
Bezugspunkte
 62
   1
 39
0.100
  6
CONTINUOUS
 10
146.04400
 20
94.56000
 30
 0
 11
146.04400
 21
97.06000
  0
LINE
  8
Bezugspunkte
 62
   1
 39
0.100
  6
CONTINUOUS
 10
124.33400
 20
141.50400
 30
 0
 11
126.83400
 21
141.50400
  0
LINE
  8
Bezugspunkte
 62
   1
 39
0.100
  6
CONTINUOUS
 10
125.58400
 20
140.25400
 30
 0
 11
125.58400
 21
142.75400
  0
LINE
  8
Bezugspunkte
 62
   1
 39
0.100
  6
CONTINUOUS
 10
49.07000
 20
134.45600
 30
 0
 11
51.57000
 21
134.45600
  0
LINE
  8
Bezugspunkte
 62
   1
 39
0.100
  6
CONTINUOUS
 10
50.32000
 20
133.20600
 30
 0
 11
50.32000
 21
135.70600
  0
LINE
  8
Bezugspunkte
 62
   1
 39
0.100
  6
CONTINUOUS
 10
36.37000
 20
152.93600
 30
 0
 11
38.87000
 21
152.93600
  0
LINE
  8
Bezugspunkte
 62
   1
 39
0.100
  6
CONTINUOUS
 10
37.62000
 20
151.68600
 30
 0
 11
37.62000
 21
154.18600
  0
LINE
  8
Bezugspunkte
 62
   1
 39
0.100
  6
CONTINUOUS
 10
-1.25000
 20
0.00000
 30
 0
 11
1.25000
 21
0.00000
  0
LINE
  8
Bezugspunkte
 62
   1
 39
0.100
  6
CONTINUOUS
 10
0.00000
 20
-1.25000
 30
 0
 11
0.00000
 21
1.25000
  0
LINE
  8
Bezugspunkte
 62
   1
 39
0.100
  6
CONTINUOUS
 10
109.80000
 20
19.68600
 30
 0
 11
112.30000
 21
19.68600
  0
LINE
  8
Bezugspunkte
 62
   1
 39
0.100
  6
CONTINUOUS
 10
111.05000
 20
18.43600
 30
 0
 11
111.05000
 21
20.93600
  0
ENDSEC
  0
EOF
